# xmcd
#
# Track frame offsets: 
#        150
#        14325
#        29028
#        46101
#        64326
#        82528
#        97762
#        112302
#        128209
#        140775
#        155145
#
# Disc length: 2252 seconds
#
# Revision: 0
# Processed by: cddbd v1.5.2PL0 Copyright (c) Steve Scherf et al.
# Submitted via: ExactAudioCopy v1.0b4
#
DISCID=9408ca0b
DTITLE=Chad Brownlee - The Fighters
DYEAR=1900
DGENRE=Country
TTITLE0=When The Lights Go Down
TTITLE1=Fallin' Over You
TTITLE2=The Fighters
TTITLE3=Matches
TTITLE4=Stay
TTITLE5=Left
TTITLE6=Hello
TTITLE7=Let 'Em Have It
TTITLE8=Just Because
TTITLE9=Where The Party At
TTITLE10=We Don't Walk This Road Alone
EXTD=
EXTT0=
EXTT1=
EXTT2=
EXTT3=
EXTT4=
EXTT5=
EXTT6=
EXTT7=
EXTT8=
EXTT9=
EXTT10=
PLAYORDER=
